<?xml version="1.0" encoding="UTF-8"?>
<svg version="1.1" viewBox="0 0 2048 758" width="1280" height="1280" xmlns="http://www.w3.org/2000/svg">
<path transform="translate(0)" d="m0 0h2048v758h-2048z" fill="#F7F7F7"/>
<path transform="translate(204,196)" d="m0 0h39l25 2 24 4 21 6 16 7 14 8 8 6v260l-4-1-19-11-19-8-19-5-27-4-11-1-48-1-1-1v-244z" fill="#37A0AC"/>
<path transform="translate(475,196)" d="m0 0h39v262l-49 1-27 3-22 5-21 7-17 9-10 7h-1v-262l16-10 16-8 18-6 25-5 18-2z" fill="#37A0AC"/>
<path transform="translate(907,249)" d="m0 0h26l1 2v204l-1 25h-27l-1-19-10 10-14 8-14 4-5 1h-15l-15-3-12-5-11-7-8-7-9-12-6-13-4-15-1-7v-15l3-17 5-13 8-12 8-9 10-7 14-7 13-3 8-1h9l16 3 16 8 9 7 5 6 1-105z" fill="#37A0AC"/>
<path transform="translate(609,264)" d="m0 0h139v27l-110 1v64h102l1 1-1 27h-102v69h116v27h-145z" fill="#37A0AC"/>
<path transform="translate(1244,258)" d="m0 0h14l20 3 15 5 15 8 11 9 8 8-4 5-16 12-2 2-4-1-8-8-11-7-13-5-12-2h-14l-13 2-14 5-12 7-13 12-7 10-8 16-4 15-1 7v24l3 16 5 13 6 11 9 10 7 7 11 7 18 6 11 2h18l14-3 10-4 12-8 13-13 11 9 13 9-4 6-11 11-14 9-17 7-15 4-17 2h-10l-21-3-18-6-15-8-12-9-14-14-10-15-9-19-5-18-1-6v-30l4-21 6-16 6-11 10-14 14-14 15-10 15-7 18-5z" fill="#37A0AC"/>
<path transform="translate(1527,331)" d="m0 0h12l16 3 13 5 9 7 7 7 5 10 3 11 1 106h-24l-1-1v-20l-14 14-10 6-9 3-11 2h-14l-14-3-12-6-10-9-4-6-3-9-1-5v-11l3-12 5-9 5-6 11-7 11-5 17-4 17-2h32l-3-16-4-8-7-6-9-4-4-1h-19l-10 3-13 7-7 5-7-6-10-10 4-5 11-7 13-6 16-4z" fill="#37A0AC"/>
<path transform="translate(979,335)" d="m0 0h23l1 2v51l1 43 3 10 6 9 6 4 10 3h16l11-4 8-7 4-5 5-11 2-11 1-83 1-1h26v145h-27l-1-20-7 9-9 7-11 5-13 3h-13l-14-3-12-6-9-8-7-11-4-12-1-7v-101z" fill="#37A0AC"/>
<path transform="translate(1686,245)" d="m0 0h13l13 2 1 4-3 21-6-1h-18l-8 4-4 6-2 7-1 13v34h32v24l-32 1-1 120h-27l-1-120-30-1v-24h31v-46l3-15 6-12 6-7 10-6 11-3z" fill="#37A0AC"/>
<path transform="translate(852,357)" d="m0 0 17 1 12 4 10 7 7 8 5 10 3 13v17l-3 12-6 11-7 8-12 7-11 3h-15l-12-3-10-5-9-8-6-10-3-9-1-5v-21l4-13 6-10 5-6 11-7z" fill="#F7F7F7"/>
<path transform="translate(1745,295)" d="m0 0h27v41l10-1h29v24h-39l1 78 3 13 5 5 4 2h16l11-3v25l-9 3-12 2h-11l-14-3-9-5-7-8-4-10-1-5-1-22v-71l-31-1v-24h32l-1-31z" fill="#37A0AC"/>
<path transform="translate(530,229)" d="m0 0 4 2 13 13v243l-1 1-70 1-27 2-28 5-16 5-14 5h-22l1-3 13-8 17-8 23-6 23-4 36-3 48-1z" fill="#37A0AC"/>
<path transform="translate(186,230)" d="m0 0h1v244h50l35 3 23 4 19 5 15 6 11 6 9 6v2h-23l-19-7-25-6-24-3-16-1-71-1v-244l12-12z" fill="#37A0AC"/>
<path transform="translate(1429,331)" d="m0 0 12 1 3 1v14l-1 16-8-1h-14l-9 2-11 6-6 7-4 9-2 9-1 84-1 1h-27v-144l1-1h27l1 21 4-6 5-6 11-7 9-4z" fill="#37A0AC"/>
<path transform="translate(1536,411)" d="m0 0h30v17l-4 13-6 9-7 6-9 4-10 2h-9l-12-2-8-4-6-8-1-4v-11l4-8 7-6 12-5z" fill="#F7F7F7"/>
</svg>
